<svg width="49" height="47" viewBox="0 0 49 47" fill="none" xmlns="http://www.w3.org/2000/svg">
<path fill-rule="evenodd" clip-rule="evenodd" d="M34.0011 23.314C34.0011 23.6289 33.8759 23.931 33.6532 24.1537C33.4305 24.3764 33.1285 24.5015 32.8136 24.5015H19.0552L24.1543 29.5982C24.2647 29.7087 24.3523 29.8397 24.412 29.984C24.4718 30.1282 24.5026 30.2829 24.5026 30.439C24.5026 30.5951 24.4718 30.7498 24.412 30.894C24.3523 31.0383 24.2647 31.1693 24.1543 31.2797C24.0439 31.3902 23.9128 31.4777 23.7686 31.5375C23.6243 31.5972 23.4697 31.628 23.3136 31.628C23.1574 31.628 23.0028 31.5972 22.8585 31.5375C22.7143 31.4777 22.5832 31.3902 22.4728 31.2797L15.3478 24.1547C15.2372 24.0444 15.1495 23.9134 15.0896 23.7691C15.0297 23.6249 14.9989 23.4702 14.9989 23.314C14.9989 23.1578 15.0297 23.0031 15.0896 22.8589C15.1495 22.7146 15.2372 22.5836 15.3478 22.4732L22.4728 15.3483C22.6958 15.1253 22.9982 15 23.3136 15C23.6289 15 23.9313 15.1253 24.1543 15.3483C24.3773 15.5712 24.5026 15.8737 24.5026 16.189C24.5026 16.5043 24.3773 16.8068 24.1543 17.0298L19.0552 22.1265H32.8136C33.1285 22.1265 33.4305 22.2516 33.6532 22.4743C33.8759 22.697 34.0011 22.9991 34.0011 23.314Z" fill="#333333"/>
<rect x="0.498932" y="0.5" width="48.0021" height="45.628" rx="22.814" stroke="#C0C0C0"/>
</svg>
